# AST/ASF file generated using VICON BodyLanguage
# -----------------------------------------------
:version 1.10
:name VICON
:units
  mass 1.0
  length 0.45
  angle deg
:documentation
   .ast/.asf automatically generated from VICON data using
   VICON BodyBuilder and BodyLanguage model FoxedUp or BRILLIANT.MOD
:root
   order TX TY TZ RX RY RZ
   axis XYZ
   position 0 0 0  
   orientation 0 0 0 
:bonedata
  begin
     id 1 
     name lhipjoint
     direction 0.521452 -0.77106 0.36545 
     length 2.0933 
     axis 0 0 0  XYZ
  end
  begin
     id 2 
     name lfemur
     direction 0.34202 -0.939693 0  
     length 6.83441  
     axis 0 0 20  XYZ
    dof rx ry rz
    limits (-160.0 20.0)
           (-70.0 70.0)
           (-60.0 70.0)
  end
  begin
     id 3 
     name ltibia
     direction 0.34202 -0.939693 0   
     length 7.28749   
     axis 0 0 20   XYZ
    dof rx
    limits (-10.0 170.0)
  end
  begin
     id 4 
     name lfoot
     direction 0.100608 -0.276418 0.955757   
     length 1.52195   
     axis -90 7.62852e-016 20   XYZ
    dof rx rz
    limits (-45.0 90.0)
           (-70.0 20.0)
  end
  begin
     id 5 
     name ltoes
     direction 1.53558e-011 -4.21907e-011 1   
     length 0.770459   
     axis -90 7.62852e-016 20   XYZ
    dof rx
    limits (-90.0 20.0)
  end
  begin
     id 6 
     name rhipjoint
     direction -0.488071 -0.788702 0.373812   
     length 2.04648  
     axis 0 0 0  XYZ 
  end
  begin
     id 7 
     name rfemur
     direction -0.34202 -0.939693 0   
     length 6.92583   
     axis 0 0 -20   XYZ
    dof rx ry rz
    limits (-160.0 20.0)
           (-70.0 70.0)
           (-70.0 60.0)
  end
  begin
     id 8 
     name rtibia
     direction -0.34202 -0.939693 0   
     length 7.41043   
     axis 0 0 -20   XYZ
    dof rx
    limits (-10.0 170.0)
 end
 begin
     id 9 
     name rfoot
     direction -0.0784433 -0.215521 0.973343   
     length 1.67708  
     axis -90 -7.62852e-016 -20   XYZ
    dof rx rz
    limits (-45.0 90.0)
           (-20.0 70.0)
  end
  begin
     id 10 
     name rtoes
     direction -1.53551e-011 -4.21842e-011 1   
     length 0.849787   
     axis -90 -7.62852e-016 -20   XYZ
    dof rx
    limits (-90.0 20.0)
  end
  begin
     id 11 
     name lowerback
     direction -0.0122332 0.997575 -0.0685192   
     length 1.98724   
     axis 0 0 0   XYZ
    dof rx ry rz
    limits (-20.0 45.0)
           (-30.0 30.0)
           (-30.0 30.0)
  end
  begin
     id 12 
     name upperback
     direction 0.0182347 0.999724 -0.0148421   
     length 1.99029   
     axis 0 0 0   XYZ
    dof rx ry rz
    limits (-20.0 45.0)
           (-30.0 30.0)
           (-30.0 30.0)
  end
  begin
     id 13 
     name thorax
     direction 0.0242908 0.99956 0.0170184   
     length 1.99573   
     axis 0 0 0   XYZ
    dof rx ry rz
    limits (-20.0 45.0)
           (-30.0 30.0)
           (-30.0 30.0)
  end
  begin
     id 14 
     name lowerneck
     direction 0.0654488 0.985533 0.156338   
     length 1.4285   
     axis 0 0 0   XYZ
    dof rx ry rz
    limits (-20.0 45.0)
           (-30.0 30.0)
           (-30.0 30.0)
  end
  begin
     id 15 
     name upperneck
     direction -0.02953 0.998556 -0.0448842   
     length 1.44709   
     axis 0 0 0   XYZ
    dof rx ry rz
    limits (-20.0 45.0)
           (-30.0 30.0)
           (-30.0 30.0)
  end
  begin
     id 16
     name head
     direction -0.0155588 0.999386 -0.0314063  
     length 1.44689  
     axis 0 0 0   XYZ
    dof rx ry rz
    limits (-20.0 45.0)
           (-30.0 30.0)
           (-30.0 30.0)
  end
  begin
     id 17 
     name lclavicle
     direction 0.968229 0.236071 -0.0824755  
     length 3.60593  
     axis 0 0 0   XYZ
    dof ry rz
    limits (-20.0 10.0)
           (0.0 20.0)
  end
  begin
     id 18 
     name lhumerus
     direction 1 -4.48968e-011 7.8138e-029   
     length 5.06035   
     axis 180 -30 -90   XYZ
    dof rx ry rz
    limits (-60.0 90.0)
           (-90.0 90.0)
           (-90.0 90.0)
  end
  begin
     id 19
     name lradius
     direction 1 -4.48967e-011 9.02887e-028   
     length 3.1478   
     axis 180 -30 -90   XYZ
    dof rx
    limits (-10.0 170.0)
  end
  begin
     id 20
     name lwrist
     direction 1 -4.48961e-011 7.20928e-028   
     length 1.5739   
     axis -5.52449e-016 90 90   XYZ
    dof ry
    limits (-180.0 0.0)
 end
  begin
     id 21 
     name lhand
     direction 1 -4.48972e-011 1.44186e-027   
     length 0.606747   
     axis -9.20027e-016 90 90   XYZ
    dof rx rz
    limits (-90.0 90.0)
           (-45.0 45.0)
  end
  begin
     id 22 
     name lfingers
     direction 1 -4.48943e-011 2.88371e-027   
     length 0.489175   
     axis -1.84005e-015 90 90   XYZ
    dof rx
    limits (0.0 90.0)
  end
  begin
     id 23
     name lthumb
     direction 0.707107 -6.34917e-011 0.707107   
     length 0.70236   
     axis -90 45 2.85299e-015   XYZ
    dof rx rz
    limits (-45.0 45.0)
           (-45.0 45.0)
  end
  begin
     id 24 
     name rclavicle
     direction -0.978165 0.207816 0.0022268   
     length 3.35425  
     axis 0 0 0   XYZ 
    dof ry rz
    limits (-10.0 20.0)
           (-20.0 0.0)
  end
  begin
     id 25 
     name rhumerus
     direction -1 -4.48964e-011 -4.02159e-027  
     length 5.12273   
     axis 180 30 90   XYZ
    dof rx ry rz
    limits (-90.0 60.0)
           (-90.0 90.0)
           (-90.0 90.0)
  end
  begin
     id 26 
     name rradius
     direction -1 -4.48966e-011 1.62746e-027   
     length 3.422   
     axis 180 30 90   XYZ
    dof rx
    limits (-10.0 170.0)
  end
  begin
     id 27 
     name rwrist
     direction -1 -4.4896e-011 7.20928e-028   
     length 1.711   
     axis -5.52449e-016 -90 -90   XYZ
    dof ry
    limits (-180.0 0.0)
  end
  begin
     id 28
     name rhand
     direction -1 -4.48979e-011 1.44186e-027   
     length 0.704599   
     axis -9.20027e-016 -90 -90   XYZ
    dof rx rz
    limits (-90.0 90.0)
           (-45.0 45.0)
  end
  begin
     id 29
     name rfingers
     direction -1 -4.48962e-011 2.88371e-027   
     length 0.568066   
     axis -1.84005e-015 -90 -90   XYZ
    dof rx
    limits (0.0 90.0)
  end
  begin
     id 30
     name rthumb
     direction -0.707107 -6.34949e-011 0.707107   
     length 0.815633   
     axis -90 -45 -2.85299e-015   XYZ
    dof rx rz
    limits (-45.0 45.0)
           (-45.0 45.0)
  end
:hierarchy
  begin
    root lhipjoint rhipjoint lowerback
    lhipjoint lfemur
    lfemur ltibia
    ltibia lfoot
    lfoot ltoes
    rhipjoint rfemur
    rfemur rtibia
    rtibia rfoot
    rfoot rtoes
    lowerback upperback
    upperback thorax
    thorax lowerneck lclavicle rclavicle
    lowerneck upperneck
    upperneck head
    lclavicle lhumerus
    lhumerus lradius
    lradius lwrist
    lwrist lhand lthumb
    lhand lfingers
    rclavicle rhumerus
    rhumerus rradius
    rradius rwrist
    rwrist rhand rthumb
    rhand rfingers
  end

#!OML:ASF E:\id_vita\Project 1\Capture day 1\Session 1\Male1.ASF
:FULLY-SPECIFIED
:DEGREES
193
root 11.7932 16.1268 -1.00197 593.715 86.2962 591.272
lowerback -3.5003 -1.3914 -0.815053
upperback -0.712415 -1.83268 1.47672
thorax 1.30452 -0.915157 1.88714
lowerneck -8.56201 1.46524 6.36983
upperneck 6.92305 1.12351 1.14522
head 3.84001 0.803038 -0.681609
rclavicle -1.67682e-014 9.59136e-015
rhumerus -26.5008 -10.2292 -84.0692
rradius 17.632
rwrist 9.46162
rhand -21.4746 34.683
rfingers 7.12502
rthumb 4.91612 4.76002
lclavicle -1.67682e-014 9.59136e-015
lhumerus -20.8015 16.9557 85.3148
lradius 19.539
lwrist -3.671
lhand -13.0935 38.8418
lfingers 7.12502
lthumb 13.003 68.4166
rfemur -13.0083 4.18569 26.5474
rtibia 30.3382
rfoot -16.796 -7.48614
rtoes -6.40638
lfemur -17.8836 6.29108 -16.4677
ltibia 65.041
lfoot -13.2205 -9.34528
ltoes 22.874
194
root 11.9746 16.1181 -0.993642 596.832 86.353 594.384
lowerback -3.33925 -1.21074 -0.66647
upperback -0.745779 -1.59611 1.40231
thorax 1.16466 -0.795385 1.74251
lowerneck -8.37865 1.40128 6.25191
upperneck 6.86617 1.06555 1.17559
head 3.77962 0.770132 -0.654469
rclavicle -3.93407e-014 1.32192e-014
rhumerus -25.0327 -8.2994 -85.0409
rradius 17.7211
rwrist 8.322
rhand -21.8649 35.1486
rfingers 7.12502
rthumb 4.53923 5.2172
lclavicle -3.93407e-014 1.32192e-014
lhumerus -22.0634 18.6591 84.3111
lradius 18.4314
lwrist -5.23627
lhand -13.1312 38.9988
lfingers 7.12502
lthumb 12.9667 68.5759
rfemur -12.2323 4.4808 26.8003
rtibia 30.378
rfoot -17.152 -8.12965
rtoes -6.7378
lfemur -19.6895 6.39402 -16.698
ltibia 64.5727
lfoot -14.3203 -9.03723
ltoes 18.3646
195
root 12.1591 16.1085 -0.991189 600.908 86.5189 598.3
lowerback -3.28919 -0.969449 -0.538777
upperback -0.791366 -1.27717 1.29845
thorax 1.07335 -0.634845 1.57969
lowerneck -8.70697 1.43703 6.50644
upperneck 7.13512 1.05658 1.10403
head 3.94492 0.779038 -0.723347
rclavicle -1.32433e-014 2.98177e-015
rhumerus -24.112 -6.24438 -85.916
rradius 18.9763
rwrist 6.77229
rhand -21.8701 35.3288
rfingers 7.12502
rthumb 4.53423 5.3973
lclavicle -1.32433e-014 2.98177e-015
lhumerus -23.2679 20.5207 83.1935
lradius 17.3052
lwrist -7.03008
lhand -13.0756 38.9507
lfingers 7.12502
lthumb 13.0203 68.5244
rfemur -11.6715 4.67343 26.9311
rtibia 30.4569
rfoot -17.6589 -8.5435
rtoes -7.34548
lfemur -21.5835 6.54989 -17.0867
ltibia 63.8848
lfoot -15.3761 -8.68559
ltoes 19.0414
196
root 12.345 16.0928 -0.990443 604.015 86.7718 601.259
lowerback -3.32225 -0.783084 -0.540891
upperback -0.787042 -1.02772 1.1245
thorax 1.08517 -0.510626 1.41252
lowerneck -8.8208 1.19557 5.9916
upperneck 7.28113 0.755814 1.43824
head 4.00134 0.63642 -0.537555
rclavicle -1.22936e-014 8.44835e-015
rhumerus -23.4559 -4.45405 -86.7035
rradius 20.7372
rwrist 5.24499
rhand -21.4972 35.3894
rfingers 7.12502
rthumb 4.89427 5.46596
lclavicle -1.22936e-014 8.44835e-015
lhumerus -24.5283 22.9973 81.6157
lradius 16.0884
lwrist -9.36486
lhand -12.7691 38.9824
lfingers 7.12502
lthumb 13.3157 68.537
rfemur -11.0954 4.81137 26.9068
rtibia 30.5102
rfoot -18.2164 -8.90938
rtoes -7.48827
lfemur -23.328 6.70021 -17.6151
ltibia 62.9987
lfoot -16.0349 -8.29408
ltoes 17.1932
197
root 12.5291 16.071 -0.986001 606.259 86.791 603.47
lowerback -3.31842 -0.683931 -0.404326
upperback -0.747178 -0.899904 1.00101
thorax 1.1161 -0.447027 1.21446
lowerneck -8.52219 1.36938 6.49611
upperneck 7.01901 0.982975 1.1438
head 3.86374 0.740655 -0.713063
rclavicle 1.62677e-015 1.19271e-015
rhumerus -22.8059 -2.8419 -87.3721
rradius 22.3882
rwrist 3.76702
rhand -21.1432 35.2724
rfingers 7.12502
rthumb 5.23606 5.35712
lclavicle 1.62677e-015 1.19271e-015
lhumerus -26.1324 26.1002 79.4806
lradius 14.8989
lwrist -12.3341
lhand -12.5602 39.0478
lfingers 7.12502
lthumb 13.5171 68.5891
rfemur -10.3129 4.95811 27.0844
rtibia 30.4341
rfoot -18.7416 -9.35234
rtoes -6.80469
lfemur -24.8956 6.73014 -17.8833
ltibia 61.8995
lfoot -16.8136 -7.82155
ltoes 13.8993
198
root 12.718 16.0554 -0.979841 609.05 86.7061 606.254
lowerback -3.34024 -0.548753 -0.204964
upperback -0.621713 -0.727829 0.918278
thorax 1.24913 -0.361762 1.02424
lowerneck -8.177 1.46927 6.94622
upperneck 6.48763 1.12898 0.864199
head 3.62149 0.795859 -0.878816
rclavicle 2.86025e-015 -5.36719e-015
rhumerus -22.0468 -1.75624 -87.819
rradius 24.1092
rwrist 2.60902
rhand -20.9308 35.1063
rfingers 7.12502
rthumb 5.44115 5.19614
lclavicle 2.86025e-015 -5.36719e-015
lhumerus -27.9034 29.686 76.9022
lradius 13.7408
lwrist -15.9846
lhand -12.5881 39.0899
lfingers 7.12502
lthumb 13.4902 68.633
rfemur -9.3354 5.16065 27.3705
rtibia 30.1174
rfoot -19.3002 -9.6419
rtoes -5.57019
lfemur -26.3822 6.66805 -17.9896
ltibia 60.5347
lfoot -17.4885 -7.21928
ltoes 13.2893
199
root 12.9147 16.0498 -0.976864 611.857 86.7331 609.105
lowerback -3.35927 -0.423252 -0.160659
upperback -0.445324 -0.56455 0.881314
thorax 1.43658 -0.281639 0.967801
lowerneck -8.63113 1.49614 6.63541
upperneck 6.91241 1.12385 1.23747
head 3.85292 0.81699 -0.697583
rclavicle -8.33187e-015 1.98785e-016
rhumerus -21.1753 -0.982443 -88.0368
rradius 25.6986
rwrist 1.92848
rhand -20.7956 34.996
rfingers 7.12502
rthumb 5.57166 5.0893
lclavicle -8.33187e-015 1.98785e-016
lhumerus -30.0458 33.2307 74.0622
lradius 12.8762
lwrist -19.5156
lhand -12.5302 39.0632
lfingers 7.12502
lthumb 13.546 68.6026
rfemur -8.11998 5.25048 27.5217
rtibia 29.4935
rfoot -19.8453 -9.74871
rtoes -4.53568
lfemur -27.624 6.58256 -18.2133
ltibia 58.8687
lfoot -18.223 -6.58448
ltoes 11.934
